<mxfile host="app.diagrams.net" modified="2024-06-27T07:29:06.176Z" agent="Mozilla/5.0 (Macintosh; Intel Mac OS X 10_15_7) AppleWebKit/537.36 (KHTML, like Gecko) Chrome/125.0.0.0 Safari/537.36" version="24.3.1" etag="Ua2_K3rY-2sEdS5fMXir" type="github">
  <diagram name="第 1 页" id="Kyjp9msbJilQa01mQPul">
    <mxGraphModel>
      <root>
        <mxCell id="0" />
        <mxCell id="1" parent="0" />
      </root>
    </mxGraphModel>
  </diagram>
</mxfile>
